<svg width="200" height="200" viewBox="0 0 200 200" fill="none" xmlns="http://www.w3.org/2000/svg">
<g clip-path="url(#clip0_302_2)">
<path d="M32.0001 73.5C31.3334 65.3333 32.0001 49.1 40.0001 49.5C46.8925 49.8446 49.8261 54.6675 50.7195 58.0215C49.7183 51.7447 50.3988 41.6307 60.0001 42C69.1138 42.3505 73.7735 49.1261 75.4597 53.7129C73.6842 46.6053 75.5088 36.4836 95.0001 42C121.5 49.5 187 87.5 199 100.5C211 113.5 131 156.5 88.0001 160C53.6001 162.8 36.3334 141.667 32.0001 131V73.5Z" fill="black"/>
<path d="M76.9443 68.4264C57.7889 64.8909 53 84.2099 53 94.3113C53 112.62 64.342 117.671 84.5057 118.934C104.669 120.196 114.121 103.15 111.601 94.3113C109.08 85.4725 100.889 72.8458 76.9443 68.4264Z" fill="#E6DCB6"/>
<path d="M42.0046 131.729V74.7294C29.5046 72.3961 4.40464 74.3294 4.00464 100.729C3.60464 127.129 29.1713 132.396 42.0046 131.729Z" fill="#F7B923" stroke="black" stroke-width="5"/>
<path d="M78.2626 74.3261C63.6525 71.6225 60 86.3958 60 94.1204C60 108.121 68.6507 111.984 84.0297 112.949C99.4088 113.915 106.618 100.879 104.695 94.1204C102.773 87.3614 96.5252 77.7056 78.2626 74.3261Z" fill="black"/>
</g>
<defs>
<clipPath id="clip0_302_2">
<rect width="200" height="200" fill="white"/>
</clipPath>
</defs>
</svg>
