<svg width="200" height="200" viewBox="0 0 200 200" fill="none" xmlns="http://www.w3.org/2000/svg">
<path d="M196.999 104.482C198.999 84.9818 114 41.144 85.9995 36.9819C57.9994 32.8197 27.9995 49.4819 24.9996 94C21.9997 138.518 44 162.5 85.9995 163.982C127.999 165.464 195.194 122.081 196.999 104.482Z" fill="#CECECE"/>
<path d="M74.9443 72.4083C55.7889 68.8728 51 88.1918 51 98.2932C51 116.602 62.342 121.653 82.5057 122.915C102.669 124.178 112.121 107.132 109.601 98.2932C107.08 89.4544 98.8886 76.8276 74.9443 72.4083Z" fill="#CECECE"/>
<path d="M76.2626 78.3079C61.6525 75.6043 58 90.3777 58 98.1023C58 112.103 66.6507 115.965 82.0297 116.931C97.4088 117.897 104.618 104.861 102.695 98.1023C100.773 91.3432 94.5252 81.6875 76.2626 78.3079Z" fill="#CECECE"/>
<path d="M76.3989 40.9819C73.2323 28.1485 74.5987 9.18185 89.3987 5.98185C107.899 1.98185 118.399 3.98187 124.399 12.4819C129.365 19.5178 119.058 19.6472 111.59 19.9525C117.272 19.8009 125.587 21.7204 122.899 27.4819C120.439 32.7521 115.614 33.9075 112.217 33.3199C114.343 34.1309 116.399 36.257 116.399 39.9819C116.399 46.4819 110.899 44.9819 103.899 45.9819L76.3989 40.9819Z" fill="#CECECE"/>
<path d="M69.3989 159C66.2323 171.833 67.5987 190.8 82.3987 194C100.899 198 111.399 196 117.399 187.5C122.365 180.464 112.058 180.335 104.59 180.029C110.272 180.181 118.587 178.262 115.899 172.5C113.439 167.23 108.614 166.074 105.217 166.662C107.343 165.851 109.399 163.725 109.399 160C109.399 153.5 103.899 155 96.8986 154L69.3989 159Z" fill="#CECECE"/>
<path d="M75 89.5814C75.1667 83.2481 79 70.8814 93 72.0814C107 73.2814 108.833 84.2481 108 89.5814C108.167 93.9147 105.406 102.081 93 102.081C93 107.581 93 105.581 93 110.581" stroke="black" stroke-width="12" stroke-linecap="round"/>
<circle cx="93" cy="126" r="7" fill="black"/>
<path d="M41.0046 128.729V71.7294C28.5046 69.3961 3.40464 71.3294 3.00464 97.7294C2.60464 124.129 28.1713 129.396 41.0046 128.729Z" fill="#CECECE"/>
</svg>
